<svg class="svg-icon" style="vertical-align: middle;fill: currentColor;overflow: hidden;" viewBox="0 0 1024 1024" version="1.1" xmlns="http://www.w3.org/2000/svg"><path d="M804 928H380a80 80 0 0 1-80-80V256c0-44 36 0 80 0h424a80 80 0 0 1 80 80v512a80 80 0 0 1-80 80z" fill="#CBECF9" /><path d="M804 936H380a88 88 0 0 1-88-88V256c0-8 0.96-19.48 9.12-24.88 9.24-6.12 20.72-1.2 35.24 5 12.4 5.28 28 12 43.64 12h424a88 88 0 0 1 88 88V848a88 88 0 0 1-88 88zM311.08 244.28a2.6 2.6 0 0 0-1.12 0.2S308 246.32 308 256v592a72 72 0 0 0 72 72h424a72 72 0 0 0 72-72V336a72 72 0 0 0-72-72H380c-19.12 0-36-7.32-49.92-13.16a78.92 78.92 0 0 0-19-6.56z" fill="#2FB1EA" /><path d="M220 176m80 0l424 0q80 0 80 80l0 512q0 80-80 80l-424 0q-80 0-80-80l0-512q0-80 80-80Z" fill="#E5F5FC" /><path d="M724 856H300a88 88 0 0 1-88-88V256a88 88 0 0 1 88-88h424a88 88 0 0 1 88 88v512a88 88 0 0 1-88 88zM300 184a72 72 0 0 0-72 72v512a72 72 0 0 0 72 72h424a72 72 0 0 0 72-72V256a72 72 0 0 0-72-72z" fill="#2FB1EA" /><path d="M140 96m80 0l424 0q80 0 80 80l0 512q0 80-80 80l-424 0q-80 0-80-80l0-512q0-80 80-80Z" fill="#CBECF9" /><path d="M140 96m80 0l388 0q80 0 80 80l0 474.08q0 80-80 80l-388 0q-80 0-80-80l0-474.08q0-80 80-80Z" fill="#FFFFFF" /><path d="M644 776H220a88 88 0 0 1-88-88V176a88 88 0 0 1 88-88h424a88 88 0 0 1 88 88v512a88 88 0 0 1-88 88zM220 104a72 72 0 0 0-72 72v512a72 72 0 0 0 72 72h424a72 72 0 0 0 72-72V176a72 72 0 0 0-72-72z" fill="#2FB1EA" /><path d="M212 188m24 0l72 0q24 0 24 24l0 72q0 24-24 24l-72 0q-24 0-24-24l0-72q0-24 24-24Z" fill="#52E355" /><path d="M212 188m24 0l72 0q24 0 24 24l0 44q0 24-24 24l-72 0q-24 0-24-24l0-44q0-24 24-24Z" fill="#90FC95" /><path d="M308 316H236a32 32 0 0 1-32-32V212a32 32 0 0 1 32-32h72a32 32 0 0 1 32 32v72a32 32 0 0 1-32 32zM236 196a16 16 0 0 0-16 16v72a16 16 0 0 0 16 16h72a16 16 0 0 0 16-16V212a16 16 0 0 0-16-16z" fill="#2FB1EA" /><path d="M212 372m24 0l72 0q24 0 24 24l0 72q0 24-24 24l-72 0q-24 0-24-24l0-72q0-24 24-24Z" fill="#CBECF9" /><path d="M212 372m24 0l72 0q24 0 24 24l0 44q0 24-24 24l-72 0q-24 0-24-24l0-44q0-24 24-24Z" fill="#FFFFFF" /><path d="M308 500H236a32 32 0 0 1-32-32V396a32 32 0 0 1 32-32h72a32 32 0 0 1 32 32v72a32 32 0 0 1-32 32zM236 380a16 16 0 0 0-16 16v72a16 16 0 0 0 16 16h72a16 16 0 0 0 16-16V396a16 16 0 0 0-16-16z" fill="#2FB1EA" /><path d="M212 556m24 0l72 0q24 0 24 24l0 72q0 24-24 24l-72 0q-24 0-24-24l0-72q0-24 24-24Z" fill="#F97171" /><path d="M212 556m24 0l72 0q24 0 24 24l0 44q0 24-24 24l-72 0q-24 0-24-24l0-44q0-24 24-24Z" fill="#FF8888" /><path d="M308 684H236a32 32 0 0 1-32-32v-72a32 32 0 0 1 32-32h72a32 32 0 0 1 32 32v72a32 32 0 0 1-32 32z m-72-120a16 16 0 0 0-16 16v72a16 16 0 0 0 16 16h72a16 16 0 0 0 16-16v-72a16 16 0 0 0-16-16z" fill="#2FB1EA" /><path d="M388 188m12 0l108 0q12 0 12 12l0 16q0 12-12 12l-108 0q-12 0-12-12l0-16q0-12 12-12Z" fill="#A4ECFF" /><path d="M388 268m12 0l240 0q12 0 12 12l0 16q0 12-12 12l-240 0q-12 0-12-12l0-16q0-12 12-12Z" fill="#A4ECFF" /><path d="M388 372m12 0l108 0q12 0 12 12l0 16q0 12-12 12l-108 0q-12 0-12-12l0-16q0-12 12-12Z" fill="#A4ECFF" /><path d="M388 452m12 0l240 0q12 0 12 12l0 16q0 12-12 12l-240 0q-12 0-12-12l0-16q0-12 12-12Z" fill="#A4ECFF" /><path d="M388 556m12 0l108 0q12 0 12 12l0 16q0 12-12 12l-108 0q-12 0-12-12l0-16q0-12 12-12Z" fill="#A4ECFF" /><path d="M388 636m12 0l240 0q12 0 12 12l0 16q0 12-12 12l-240 0q-12 0-12-12l0-16q0-12 12-12Z" fill="#A4ECFF" /><path d="M96 492m-20 0a20 20 0 1 0 40 0 20 20 0 1 0-40 0Z" fill="#D4FFD4" /><path d="M512 992m-16 0a16 16 0 1 0 32 0 16 16 0 1 0-32 0Z" fill="#D4FFD4" /><path d="M992 564m-12 0a12 12 0 1 0 24 0 12 12 0 1 0-24 0Z" fill="#D4FFD4" /><path d="M756 24m-8 0a8 8 0 1 0 16 0 8 8 0 1 0-16 0Z" fill="#D4FFD4" /><path d="M872 228m-4 0a4 4 0 1 0 8 0 4 4 0 1 0-8 0Z" fill="#D4FFD4" /><path d="M996 316m-20 0a20 20 0 1 0 40 0 20 20 0 1 0-40 0Z" fill="#FFBDBD" /><path d="M804 96m-16 0a16 16 0 1 0 32 0 16 16 0 1 0-32 0Z" fill="#FFBDBD" /><path d="M76 596m-12 0a12 12 0 1 0 24 0 12 12 0 1 0-24 0Z" fill="#FFBDBD" /><path d="M96 236m-8 0a8 8 0 1 0 16 0 8 8 0 1 0-16 0Z" fill="#FFBDBD" /><path d="M340 64m-4 0a4 4 0 1 0 8 0 4 4 0 1 0-8 0Z" fill="#FFBDBD" /><path d="M232 912m-20 0a20 20 0 1 0 40 0 20 20 0 1 0-40 0Z" fill="#BBF1FF" /><path d="M936 656m-16 0a16 16 0 1 0 32 0 16 16 0 1 0-32 0Z" fill="#BBF1FF" /><path d="M524 48m-12 0a12 12 0 1 0 24 0 12 12 0 1 0-24 0Z" fill="#BBF1FF" /><path d="M920 912m-8 0a8 8 0 1 0 16 0 8 8 0 1 0-16 0Z" fill="#BBF1FF" /><path d="M912 836m-4 0a4 4 0 1 0 8 0 4 4 0 1 0-8 0Z" fill="#BBF1FF" /><path d="M28 796m-20 0a20 20 0 1 0 40 0 20 20 0 1 0-40 0Z" fill="#FFF4C5" /><path d="M936 464m-16 0a16 16 0 1 0 32 0 16 16 0 1 0-32 0Z" fill="#FFF4C5" /><path d="M700 972m-12 0a12 12 0 1 0 24 0 12 12 0 1 0-24 0Z" fill="#FFF4C5" /><path d="M168 828m-8 0a8 8 0 1 0 16 0 8 8 0 1 0-16 0Z" fill="#FFF4C5" /><path d="M628 60m-4 0a4 4 0 1 0 8 0 4 4 0 1 0-8 0Z" fill="#FFF4C5" /></svg>